<?xml version="1.0" encoding="iso-8859-1"?>
<!-- Generator: Adobe Illustrator 19.0.0, SVG Export Plug-In . SVG Version: 6.00 Build 0)  -->
<svg version="1.1" id="Capa_1" xmlns="http://www.w3.org/2000/svg" xmlns:xlink="http://www.w3.org/1999/xlink" x="0px" y="0px"
	 viewBox="0 0 408.477 408.477" style="enable-background:new 0 0 408.477 408.477;" xml:space="preserve">
<g>
	<g id="Guides_For_Artboard_3_">
	</g>
	<g id="Artwork_3_">
	</g>
	<g id="Layer_2_3_">
		<g>
			<path style="fill:#664B3A;" d="M241.441,237.807c8.404,4.995,17.842,10.945,26.99,18.088
				c11.918,4.199,25.148,10.151,40.351,18.577c2.306,1.278,4.706,2.489,7.145,3.681c0.339-2.52,0.439-4.99,0.306-7.349
				c-0.843-14.801-9.318-9.221-11.544-7.975c-4.042,2.261-8.863,0.399-12.377-3.896c14.753-7.68,23.069-22.836,23.078-35.101
				c0.009-11.144-6.965-7.333-9.149-6.447c-11.084,4.483-21.789-17.621-6.508-34.154c8.315-8.011,4.105-13.646,1.612-16.446
				c-2.831-3.181-5.916-6.072-8.882-8.451c-0.873,1.664-1.553,3.15-2.39,4.453C283.992,192.842,265.661,222.334,241.441,237.807z"/>
			<path style="fill:#664B3A;" d="M171.303,239.309c-0.104-0.062-0.205-0.125-0.308-0.187c-0.02,2.667-0.053,5.698-0.008,8.968
				c0.105-0.016,0.21-0.029,0.315-0.045L171.303,239.309L171.303,239.309z"/>
			<path style="fill:#664B3A;" d="M142.283,255.121c8.348-7.357,20.341-12.196,28.713-15.998
				c-21.787-14.004-41.099-40.878-48.654-67.72c-2.145-1.824-4.212-5.485-6.405-11.541c-2.306,1.997-4.746,4.43-6.966,6.924
				c-2.494,2.801-6.705,8.436,1.61,16.446c15.282,16.533,4.576,38.638-6.508,34.154c-2.185-0.886-9.157-4.696-9.149,6.447
				c0.011,12.265,8.325,27.421,23.078,35.101c-3.514,4.295-8.334,6.156-12.375,3.896c-2.227-1.246-10.703-6.826-11.544,7.975
				c-0.119,2.091-0.051,4.271,0.202,6.494c1.841-0.918,3.653-1.853,5.41-2.826C115.854,265.516,129.79,259.35,142.283,255.121z"/>
			<path style="fill:#DEC8AE;" d="M204.702,349.532c0.047-0.095,0.091-0.191,0.138-0.285c-0.043-0.063-0.086-0.124-0.129-0.188
				C204.706,349.218,204.702,349.378,204.702,349.532z"/>
			<path style="fill:#DEC8AE;" d="M170.988,248.091c0.036,2.64,0.126,5.434,0.315,8.321v-8.366
				C171.199,248.061,171.094,248.075,170.988,248.091z"/>
			<path style="fill:#F7F1E6;" d="M204.569,340.695c0.153,1.808,0.259,3.685,0.312,5.64
				C205.01,344.472,205.082,342.505,204.569,340.695z"/>
			<path style="fill:#F7F1E6;" d="M204.922,349.076c0,0.1,0.003,0.194,0.003,0.294c0-0.104,0.003-0.203,0.003-0.307
				C204.926,349.067,204.923,349.072,204.922,349.076z"/>
			<path style="fill:#F7F1E6;" d="M315.926,278.153c-2.438-1.191-4.839-2.402-7.145-3.681
				c-15.202-8.426-28.433-14.378-40.351-18.577c9.646,8.686,17.346,18.766,18.867,27.992c-9.84-7.182-16.989-11.862-39.856-12.061
				c5.492,5.988,13.189,21.519,16.186,35.622c-14.197,0.029-37.421,10.307-58.702,41.921c-0.028-0.042-0.057-0.082-0.085-0.123
				c-0.047,0.094-0.091,0.19-0.138,0.285c0-0.154,0.004-0.313,0.009-0.473c-21.224-31.366-44.343-41.581-58.491-41.61
				c2.995-14.104,10.692-29.634,16.184-35.622c-22.866,0.198-30.016,4.879-39.855,12.061c1.567-9.502,9.687-19.91,19.735-28.767
				c-12.493,4.229-26.429,10.396-42.588,19.352c-1.757,0.974-3.569,1.908-5.41,2.826c-19.011,9.473-41.276,16.983-41.276,43.838
				c0,16.401,0,41.616,0,60.745c0,15.227,15.54,26.596,37.436,26.596c34.071,0,83.524,0,113.794-0.001
				c30.27,0.001,79.722,0.001,113.792,0.001c21.898,0,37.436-11.369,37.436-26.596c0-19.129,0-44.344,0-60.745
				C355.466,295.094,334.529,287.243,315.926,278.153z M303.907,370.888c0,2.771-2.246,5.019-5.019,5.019h-7.965v7.966
				c0,2.773-2.246,5.021-5.019,5.021h-2.898h-0.457c-2.772,0-5.019-2.247-5.019-5.021v-7.966h-7.968
				c-2.768,0-5.017-2.247-5.017-5.019v-3.354c0-2.771,2.249-5.019,5.017-5.019h7.968v-7.965c0-2.772,2.246-5.019,5.019-5.019h0.457
				h2.898c2.772,0,5.019,2.246,5.019,5.019v7.965h7.965c2.772,0,5.019,2.247,5.019,5.019V370.888z"/>
			<path style="fill:#DEC8AE;" d="M238.855,239.398c-10.385,6.104-21.775,9.653-33.698,9.653c-11.981,0-23.427-3.583-33.853-9.742
				v8.736v8.366c0.56,8.519,2.004,17.829,5.609,26.276c1.526,3.575,3.435,6.996,5.831,10.135
				c11.612,15.209,20.04,26.863,21.824,47.872c0.514,1.81,0.442,3.777,0.312,5.64c0.024,0.898,0.039,1.81,0.042,2.741
				c0.002-0.004,0.004-0.009,0.006-0.013c0.07-26.516,9.104-39.123,22.174-56.24c2.542-3.328,4.534-6.975,6.103-10.784
				C239.214,267.444,238.939,250.418,238.855,239.398z"/>
			<path style="fill:#F3DBBD;" d="M170.996,239.123c0.103,0.062,0.204,0.125,0.308,0.187c10.426,6.159,21.871,9.742,33.853,9.742
				c11.923,0,23.313-3.55,33.698-9.653c1.123-0.657,1.426-0.86,2.586-1.591c24.222-15.474,42.552-44.851,48.632-74.904
				c-8.219,12.792-14.534,8.188-15.832-12.357c-0.865-13.661-8.678-29.628-23.976-40.866c2.563,6.465,4.317,13.659,5.085,21.581
				c0.533,5.499-1.301,17.234-16.342,15.946c-34.143-5.135-64.18-20.944-80.797-38.318c-17.332,12.773-23.045,31.488-22.737,42.194
				c0.345,11.99-5.853,26.688-13.132,20.5c7.556,26.842,24.549,52.096,46.336,66.1C169.396,238.174,169.604,238.383,170.996,239.123
				z"/>
			<path style="fill:#FFFFFF;" d="M204.88,346.335c-0.053-1.955-0.158-3.832-0.312-5.64c-1.784-21.009-10.212-32.663-21.824-47.872
				c-2.396-3.139-4.305-6.56-5.831-10.135c-3.605-8.447-5.05-17.758-5.609-26.276c-0.189-2.888,0.036-5.515,0-8.154
				c-0.045-3.27-0.02-3.499,0-6.166c0.006-0.855,0-2.192,0-2.969c-1.494-0.67-1.001-0.556-2.159-1.241
				c-8.372,3.802-18.514,9.882-26.861,17.239c-10.049,8.856-18.168,19.265-19.735,28.767c9.84-7.182,16.989-11.862,39.855-12.061
				c-5.491,5.988-13.188,21.519-16.184,35.622c14.148,0.029,37.268,10.244,58.491,41.61c0.043,0.063,0.086,0.124,0.129,0.188
				c0.028,0.041,0.057,0.081,0.085,0.123c0-0.1-0.003-0.194-0.003-0.294C204.919,348.144,204.905,347.233,204.88,346.335z"/>
			<path style="fill:#FFFFFF;" d="M238.855,239.398c0.084,11.02,0.359,28.046-5.65,42.641c-1.568,3.81-3.561,7.456-6.103,10.784
				c-13.069,17.117-22.104,29.725-22.174,56.24c0,0.104-0.003,0.203-0.003,0.307c21.281-31.614,44.505-41.892,58.702-41.921
				c-2.996-14.104-10.693-29.634-16.186-35.622c22.867,0.198,30.017,4.879,39.856,12.061c-1.521-9.227-9.222-19.307-18.867-27.992
				c-8.451-7.609-26.99-18.088-26.99-18.088S239.895,238.799,238.855,239.398z"/>
			<path style="fill:#664B3A;" d="M122.341,171.583c7.279,6.188,13.477-8.51,13.132-20.5c-0.308-10.706,5.405-29.421,22.737-42.194
				c16.617,17.374,46.654,33.184,80.797,38.318c15.041,1.288,16.875-10.447,16.342-15.946c-0.768-7.922-2.521-15.116-5.085-21.581
				c15.298,11.238,23.11,27.205,23.976,40.866c1.298,20.546,7.613,25.149,15.832,12.357c0.837-1.303,1.691-2.778,2.564-4.442
				c0.579-1.104,1.164-2.278,1.756-3.542c6.71-14.325-1.725-59.683-28.894-89.351c-4.054,7.383-11.702,12.563-23.121,12.563H207.1
				h-35.277c-13.98,0-22.313-7.759-25.311-17.825c-0.07-0.236-0.146-0.488-0.221-0.74c-29.266,24.545-40.08,65.143-33.303,91.36
				c0.91,3.521,1.84,6.544,2.777,9.133C117.959,166.114,120.198,169.759,122.341,171.583z"/>
			<path style="fill:#F7F1E6;" d="M171.823,78.131H207.1h35.278c11.419,0,19.067-5.18,23.121-12.563
				c0.909-1.655,1.642-3.419,2.19-5.263c2.998-10.066,10.039-33.837,10.039-33.837C281.76,14.476,275.074,0,261.095,0H207.1h-53.995
				c-13.978,0-20.665,14.476-16.634,26.468c0,0,6.712,22.658,9.82,33.097c0.075,0.252,0.15,0.504,0.221,0.74
				C149.509,70.372,157.841,78.131,171.823,78.131z M187.419,37.386c0-2.771,2.248-5.018,5.017-5.018h7.968v-7.965
				c0-2.772,2.246-5.019,5.019-5.019h0.456h2.899c2.771,0,5.018,2.246,5.018,5.019v7.965h7.966c2.771,0,5.019,2.247,5.019,5.018
				v3.356c0,2.771-2.247,5.019-5.019,5.019h-7.966v7.965c0,2.772-2.246,5.021-5.018,5.021h-2.899h-0.456
				c-2.772,0-5.019-2.248-5.019-5.021v-7.965h-7.968c-2.769,0-5.017-2.247-5.017-5.019V37.386z"/>
			<path style="fill:#E74424;" d="M192.436,45.761h7.968v7.965c0,2.772,2.246,5.021,5.019,5.021h0.456h2.899
				c2.771,0,5.018-2.248,5.018-5.021v-7.965h7.966c2.771,0,5.019-2.247,5.019-5.019v-3.356c0-2.771-2.247-5.018-5.019-5.018h-7.966
				v-7.965c0-2.772-2.246-5.019-5.018-5.019h-2.899h-0.456c-2.772,0-5.019,2.246-5.019,5.019v7.965h-7.968
				c-2.769,0-5.017,2.247-5.017,5.018v3.356C187.419,43.514,189.668,45.761,192.436,45.761z"/>
			<path style="fill:#E74424;" d="M298.888,362.515h-7.965v-7.965c0-2.772-2.246-5.019-5.019-5.019h-2.898h-0.457
				c-2.772,0-5.019,2.246-5.019,5.019v7.965h-7.968c-2.768,0-5.017,2.247-5.017,5.019v3.354c0,2.771,2.249,5.019,5.017,5.019h7.968
				v7.966c0,2.773,2.246,5.021,5.019,5.021h0.457h2.898c2.772,0,5.019-2.247,5.019-5.021v-7.966h7.965
				c2.772,0,5.019-2.247,5.019-5.019v-3.354C303.907,364.762,301.66,362.515,298.888,362.515z"/>
		</g>
	</g>
</g>
<g>
</g>
<g>
</g>
<g>
</g>
<g>
</g>
<g>
</g>
<g>
</g>
<g>
</g>
<g>
</g>
<g>
</g>
<g>
</g>
<g>
</g>
<g>
</g>
<g>
</g>
<g>
</g>
<g>
</g>
</svg>
